<svg width="348" height="28" viewBox="0 0 348 28" fill="none" xmlns="http://www.w3.org/2000/svg">
<path opacity="0.75" d="M342 0H6C4.89543 0 4 0.895431 4 2V9.68323C4 10.7878 4.89543 11.6832 6 11.6832H71.4781C71.8203 11.6832 72.1568 11.771 72.4554 11.9383L84.6081 18.7449C84.9067 18.9122 85.2432 19 85.5854 19H334.088C334.54 19 334.978 18.8471 335.332 18.5663L343.244 12.2838C343.721 11.9044 344 11.3276 344 10.7175V2C344 0.895431 343.105 0 342 0Z" fill="#19327F"/>
<path opacity="0.75" d="M346 4H10C8.89543 4 8 4.89543 8 6V13.6832C8 14.7878 8.89543 15.6832 10 15.6832H75.4781C75.8203 15.6832 76.1568 15.771 76.4554 15.9383L88.6081 22.7449C88.9067 22.9122 89.2432 23 89.5854 23H338.088C338.54 23 338.978 22.8471 339.332 22.5663L347.244 16.2838C347.721 15.9044 348 15.3276 348 14.7175V6C348 4.89543 347.105 4 346 4Z" fill="#1B45D7"/>
<path opacity="0.75" d="M338 9H2C0.895431 9 0 9.89543 0 11V18.6832C0 19.7878 0.895432 20.6832 2 20.6832H67.4781C67.8203 20.6832 68.1568 20.771 68.4554 20.9383L80.6081 27.7449C80.9067 27.9122 81.2432 28 81.5854 28H330.088C330.54 28 330.978 27.8471 331.332 27.5663L339.244 21.2838C339.721 20.9044 340 20.3276 340 19.7175V11C340 9.89543 339.105 9 338 9Z" fill="#1B45D7"/>
</svg>
